<?xml version="1.0" encoding="UTF-8" standalone="no"?>
<!DOCTYPE svg PUBLIC "-//W3C//DTD SVG 1.1//EN"
 "http://www.w3.org/Graphics/SVG/1.1/DTD/svg11.dtd">
<!-- Generated by graphviz version 2.43.0 (0)
 -->
<!-- Title: OperationalFlow Pages: 1 -->
<svg width="523pt" height="67pt"
 viewBox="0.00 0.00 523.00 67.00" xmlns="http://www.w3.org/2000/svg" xmlns:xlink="http://www.w3.org/1999/xlink">
<g id="graph0" class="graph" transform="scale(1 1) rotate(0) translate(4 63)">
<title>OperationalFlow</title>
<polygon fill="white" stroke="transparent" points="-4,4 -4,-63 519,-63 519,4 -4,4"/>
<!-- 1: Create Project -->
<g id="node1" class="node">
<title>1: Create Project</title>
<polygon fill="#f0f0f0" stroke="black" points="116,-36 0,-36 0,0 116,0 116,-36"/>
<text text-anchor="middle" x="58" y="-14.9" font-family="sans-serif" font-size="12.00">1: Create Project</text>
</g>
<!-- 2: Plan Project -->
<g id="node2" class="node">
<title>2: Plan Project</title>
<polygon fill="#f0f0f0" stroke="black" points="253,-36 152,-36 152,0 253,0 253,-36"/>
<text text-anchor="middle" x="202.5" y="-14.9" font-family="sans-serif" font-size="12.00">2: Plan Project</text>
</g>
<!-- 1: Create Project&#45;&gt;2: Plan Project -->
<g id="edge1" class="edge">
<title>1: Create Project&#45;&gt;2: Plan Project</title>
<path fill="none" stroke="black" d="M116.14,-18C124.51,-18 133.14,-18 141.57,-18"/>
<polygon fill="black" stroke="black" points="141.7,-21.5 151.7,-18 141.7,-14.5 141.7,-21.5"/>
</g>
<!-- 3: Execute Plan -->
<g id="node3" class="node">
<title>3: Execute Plan</title>
<polygon fill="#f0f0f0" stroke="black" points="398,-59 289,-59 289,-23 398,-23 398,-59"/>
<text text-anchor="middle" x="343.5" y="-37.9" font-family="sans-serif" font-size="12.00">3: Execute Plan</text>
</g>
<!-- 2: Plan Project&#45;&gt;3: Execute Plan -->
<g id="edge2" class="edge">
<title>2: Plan Project&#45;&gt;3: Execute Plan</title>
<path fill="none" stroke="black" d="M253.29,-26.24C261.58,-27.61 270.27,-29.05 278.84,-30.47"/>
<polygon fill="black" stroke="black" points="278.39,-33.94 288.82,-32.12 279.53,-27.03 278.39,-33.94"/>
</g>
<!-- 4: Improve -->
<g id="node4" class="node">
<title>4: Improve</title>
<polygon fill="#f0f0f0" stroke="black" points="515,-36 434,-36 434,0 515,0 515,-36"/>
<text text-anchor="middle" x="474.5" y="-14.9" font-family="sans-serif" font-size="12.00">4: Improve</text>
</g>
<!-- 3: Execute Plan&#45;&gt;4: Improve -->
<g id="edge3" class="edge">
<title>3: Execute Plan&#45;&gt;4: Improve</title>
<path fill="none" stroke="black" d="M398.09,-31.45C406.55,-29.94 415.27,-28.38 423.65,-26.89"/>
<polygon fill="black" stroke="black" points="424.42,-30.31 433.65,-25.1 423.19,-23.41 424.42,-30.31"/>
</g>
<!-- 4: Improve&#45;&gt;2: Plan Project -->
<g id="edge4" class="edge">
<title>4: Improve&#45;&gt;2: Plan Project</title>
<path fill="none" stroke="black" d="M433.94,-15.51C422.36,-14.89 409.68,-14.31 398,-14 349.57,-12.72 337.43,-12.87 289,-14 280.67,-14.19 271.89,-14.5 263.25,-14.85"/>
<polygon fill="black" stroke="black" points="263.06,-11.35 253.22,-15.28 263.36,-18.35 263.06,-11.35"/>
</g>
</g>
</svg>
