<?xml version="1.0" encoding="UTF-8" standalone="no"?>
<!DOCTYPE svg PUBLIC "-//W3C//DTD SVG 1.1//EN"
 "http://www.w3.org/Graphics/SVG/1.1/DTD/svg11.dtd">
<!-- Generated by graphviz version 2.43.0 (0)
 -->
<!-- Title: StatesAndPhases Pages: 1 -->
<svg width="356pt" height="452pt"
 viewBox="0.00 0.00 356.00 452.00" xmlns="http://www.w3.org/2000/svg" xmlns:xlink="http://www.w3.org/1999/xlink">
<g id="graph0" class="graph" transform="scale(1 1) rotate(0) translate(4 448)">
<title>StatesAndPhases</title>
<!-- Initializing -->
<g id="node1" class="node">
<title>Initializing</title>
<path fill="white" stroke="black" stroke-width="1.5" d="M121,-384.5C121,-384.5 227,-384.5 227,-384.5 233,-384.5 239,-390.5 239,-396.5 239,-396.5 239,-431.5 239,-431.5 239,-437.5 233,-443.5 227,-443.5 227,-443.5 121,-443.5 121,-443.5 115,-443.5 109,-437.5 109,-431.5 109,-431.5 109,-396.5 109,-396.5 109,-390.5 115,-384.5 121,-384.5"/>
<text text-anchor="start" x="144" y="-428.4" font-family="sans-serif" text-decoration="underline" font-size="12.00">Initializing</text>
<text text-anchor="start" x="119" y="-410.4" font-family="sans-serif" font-size="12.00">[ ] Project created</text>
<text text-anchor="start" x="119" y="-393.4" font-family="sans-serif" font-size="12.00">[ ] Project defined.</text>
</g>
<!-- Planning -->
<g id="node2" class="node">
<title>Planning</title>
<path fill="white" stroke="black" stroke-width="1.5" d="M12,-288.5C12,-288.5 336,-288.5 336,-288.5 342,-288.5 348,-294.5 348,-300.5 348,-300.5 348,-335.5 348,-335.5 348,-341.5 342,-347.5 336,-347.5 336,-347.5 12,-347.5 12,-347.5 6,-347.5 0,-341.5 0,-335.5 0,-335.5 0,-300.5 0,-300.5 0,-294.5 6,-288.5 12,-288.5"/>
<text text-anchor="start" x="148" y="-332.4" font-family="sans-serif" text-decoration="underline" font-size="12.00">Planning</text>
<text text-anchor="start" x="10" y="-314.4" font-family="sans-serif" font-size="12.00">[ ] Project definition broken down into actionable tasks.</text>
<text text-anchor="start" x="10" y="-297.4" font-family="sans-serif" font-size="12.00">[ ] Task specifications validated against requirements.</text>
</g>
<!-- Initializing&#45;&gt;Planning -->
<g id="edge1" class="edge">
<title>Initializing&#45;&gt;Planning</title>
<path fill="none" stroke="black" d="M174,-384.41C174,-384.41 174,-357.65 174,-357.65"/>
<polygon fill="black" stroke="black" points="177.5,-357.65 174,-347.65 170.5,-357.65 177.5,-357.65"/>
<text text-anchor="middle" x="117" y="-374.03" font-family="sans-serif" font-size="10.00">Definition good enough</text>
</g>
<!-- Executing -->
<g id="node3" class="node">
<title>Executing</title>
<path fill="white" stroke="black" stroke-width="1.5" d="M104,-192.5C104,-192.5 244,-192.5 244,-192.5 250,-192.5 256,-198.5 256,-204.5 256,-204.5 256,-239.5 256,-239.5 256,-245.5 250,-251.5 244,-251.5 244,-251.5 104,-251.5 104,-251.5 98,-251.5 92,-245.5 92,-239.5 92,-239.5 92,-204.5 92,-204.5 92,-198.5 98,-192.5 104,-192.5"/>
<text text-anchor="start" x="144.5" y="-236.4" font-family="sans-serif" text-decoration="underline" font-size="12.00">Executing</text>
<text text-anchor="start" x="102" y="-218.4" font-family="sans-serif" font-size="12.00">[ ] Plan implemented</text>
<text text-anchor="start" x="102" y="-201.4" font-family="sans-serif" font-size="12.00">[ ] New version running.</text>
</g>
<!-- Planning&#45;&gt;Executing -->
<g id="edge2" class="edge">
<title>Planning&#45;&gt;Executing</title>
<path fill="none" stroke="black" d="M174,-288.41C174,-288.41 174,-261.65 174,-261.65"/>
<polygon fill="black" stroke="black" points="177.5,-261.65 174,-251.65 170.5,-261.65 177.5,-261.65"/>
<text text-anchor="middle" x="139" y="-278.03" font-family="sans-serif" font-size="10.00">Plan validated</text>
</g>
<!-- Monitoring -->
<g id="node4" class="node">
<title>Monitoring</title>
<path fill="white" stroke="black" stroke-width="1.5" d="M121.5,-96.5C121.5,-96.5 226.5,-96.5 226.5,-96.5 232.5,-96.5 238.5,-102.5 238.5,-108.5 238.5,-108.5 238.5,-143.5 238.5,-143.5 238.5,-149.5 232.5,-155.5 226.5,-155.5 226.5,-155.5 121.5,-155.5 121.5,-155.5 115.5,-155.5 109.5,-149.5 109.5,-143.5 109.5,-143.5 109.5,-108.5 109.5,-108.5 109.5,-102.5 115.5,-96.5 121.5,-96.5"/>
<text text-anchor="start" x="142.5" y="-140.4" font-family="sans-serif" text-decoration="underline" font-size="12.00">Monitoring</text>
<text text-anchor="start" x="120" y="-122.4" font-family="sans-serif" font-size="12.00">[ ] Metrics defined</text>
<text text-anchor="start" x="120" y="-105.4" font-family="sans-serif" font-size="12.00">[ ] Data collected.</text>
</g>
<!-- Executing&#45;&gt;Monitoring -->
<g id="edge3" class="edge">
<title>Executing&#45;&gt;Monitoring</title>
<path fill="none" stroke="black" d="M174,-192.41C174,-192.41 174,-165.65 174,-165.65"/>
<polygon fill="black" stroke="black" points="177.5,-165.65 174,-155.65 170.5,-165.65 177.5,-165.65"/>
<text text-anchor="middle" x="119.5" y="-182.03" font-family="sans-serif" font-size="10.00">New version deployed</text>
</g>
<!-- Improving -->
<g id="node5" class="node">
<title>Improving</title>
<path fill="white" stroke="black" stroke-width="1.5" d="M97,-0.5C97,-0.5 251,-0.5 251,-0.5 257,-0.5 263,-6.5 263,-12.5 263,-12.5 263,-47.5 263,-47.5 263,-53.5 257,-59.5 251,-59.5 251,-59.5 97,-59.5 97,-59.5 91,-59.5 85,-53.5 85,-47.5 85,-47.5 85,-12.5 85,-12.5 85,-6.5 91,-0.5 97,-0.5"/>
<text text-anchor="start" x="143.5" y="-44.4" font-family="sans-serif" text-decoration="underline" font-size="12.00">Improving</text>
<text text-anchor="start" x="95" y="-26.4" font-family="sans-serif" font-size="12.00">[ ] New insights generated</text>
<text text-anchor="start" x="95" y="-9.4" font-family="sans-serif" font-size="12.00">[ ] Feedback loop closed.</text>
</g>
<!-- Monitoring&#45;&gt;Improving -->
<g id="edge4" class="edge">
<title>Monitoring&#45;&gt;Improving</title>
<path fill="none" stroke="black" d="M174,-96.41C174,-96.41 174,-69.65 174,-69.65"/>
<polygon fill="black" stroke="black" points="177.5,-69.65 174,-59.65 170.5,-69.65 177.5,-69.65"/>
<text text-anchor="middle" x="106" y="-86.03" font-family="sans-serif" font-size="10.00">Performance data available</text>
</g>
<!-- Improving&#45;&gt;Planning -->
<g id="edge5" class="edge">
<title>Improving&#45;&gt;Planning</title>
<path fill="none" stroke="#666666" stroke-width="2" stroke-dasharray="5,2" d="M263.17,-29C286.62,-29 305.5,-29 305.5,-29 305.5,-29 305.5,-278.43 305.5,-278.43"/>
<polygon fill="#666666" stroke="#666666" stroke-width="2" points="302,-278.43 305.5,-288.43 309,-278.43 302,-278.43"/>
</g>
</g>
</svg>
